<?xml version="1.0" encoding="UTF-8" standalone="no"?> <svg xmlns="http://www.w3.org/2000/svg" version="1.0" width="1962.000000pt" height="1608.000000pt" viewBox="0 0 1962.000000 1608.000000" preserveAspectRatio="xMidYMid meet"><metadata> Created by potrace 1.13, written by Peter Selinger 2001-2015 </metadata><g transform="translate(0.000000,1608.000000) scale(0.100000,-0.100000)" fill="#000000" stroke="none"><path d="M306 16065 c-3 -8 -14 -15 -25 -15 -27 0 -131 -59 -166 -95 -35 -35 -95 -139 -95 -165 0 -10 -4 -22 -10 -25 -13 -8 -13 -192 0 -200 6 -3 10 -14 10 -25 0 -52 101 -182 175 -226 87 -50 47 -49 1155 -55 575 -3 1061 -9 1080 -13 78 -15 118 -28 195 -61 161 -69 290 -166 404 -303 66 -80 137 -199 152 -257 8 -29 19 -70 39 -140 6 -19 15 -52 21 -72 13 -48 28 -99 40 -140 5 -18 14 -49 19 -68 6 -19 15 -51 20 -70 6 -19 14 -50 19 -67 5 -18 24 -80 41 -138 17 -58 36 -120 41 -137 5 -18 13 -48 18 -65 5 -18 24 -80 41 -138 17 -58 36 -120 41 -137 5 -18 13 -48 18 -65 5 -18 24 -80 41 -138 17 -58 36 -121 41 -140 17 -61 27 -92 59 -200 17 -58 35 -118 40 -135 5 -16 18 -61 30 -100 12 -38 26 -86 31 -105 17 -61 27 -92 59 -200 17 -58 36 -121 41 -140 17 -61 27 -92 59 -200 17 -58 36 -120 41 -137 5 -18 13 -48 18 -65 5 -18 24 -80 41 -138 17 -58 35 -118 40 -135 5 -16 18 -61 30 -100 12 -38 26 -86 31 -105 17 -61 27 -92 59 -200 17 -58 36 -120 41 -137 5 -18 13 -48 18 -65 5 -18 24 -80 41 -138 17 -58 36 -120 41 -137 5 -18 13 -48 18 -65 5 -18 24 -80 41 -138 17 -58 36 -121 41 -140 17 -61 27 -92 59 -200 17 -58 36 -120 41 -137 5 -18 13 -48 18 -65 5 -18 28 -96 51 -173 23 -77 46 -156 51 -175 17 -61 27 -92 59 -200 17 -58 36 -120 41 -137 5 -18 14 -49 19 -68 6 -19 15 -51 20 -70 6 -19 14 -50 19 -67 5 -18 28 -96 51 -173 23 -77 46 -155 51 -172 5 -18 14 -49 19 -68 6 -19 15 -52 21 -72 19 -68 27 -96 69 -238 23 -77 46 -156 51 -175 6 -19 14 -50 20 -67 12 -42 26 -93 40 -140 5 -21 14 -51 19 -68 5 -16 13 -46 19 -65 5 -19 14 -51 20 -70 5 -19 14 -51 20 -70 5 -19 14 -51 20 -70 5 -19 15 -52 20 -72 6 -21 16 -55 22 -75 5 -21 14 -53 20 -70 5 -18 14 -49 19 -68 6 -19 15 -51 20 -70 6 -19 15 -52 21 -72 5 -21 14 -53 20 -70 5 -18 14 -50 20 -70 5 -21 14 -51 19 -68 15 -52 31 -109 40 -145 5 -19 14 -53 20 -75 6 -22 15 -56 20 -75 5 -19 18 -71 30 -115 12 -44 26 -98 30 -120 5 -22 13 -58 19 -80 9 -37 14 -56 41 -150 6 -19 14 -50 19 -67 51 -185 168 -466 283 -681 269 -500 668 -884 1113 -1072 22 -9 49 -21 60 -26 11 -4 52 -18 90 -30 39 -12 79 -25 90 -30 30 -11 132 -32 255 -52 57 -9 1044 -12 4055 -12 l3980 0 68 32 c201 96 291 339 197 538 -49 104 -128 179 -229 219 -41 16 -282 17 -3910 17 -3319 -1 -3884 1 -3991 14 -141 16 -222 33 -280 57 -14 6 -34 14 -45 18 -142 55 -289 153 -415 280 -74 75 -210 240 -210 256 0 3 -13 24 -29 47 -59 86 -156 275 -202 395 -5 12 -13 32 -18 45 -5 12 -15 40 -22 62 -7 22 -17 46 -23 53 -5 7 -6 15 -3 19 4 3 1982 5 4396 4 4371 -2 4573 -1 4811 31 398 53 660 190 867 456 143 182 381 606 560 997 23 50 60 129 82 178 106 226 121 259 121 262 0 2 17 41 39 87 21 45 80 175 131 288 51 113 114 252 140 310 61 133 235 524 524 1175 125 281 240 538 257 573 16 35 29 65 29 68 0 2 18 43 40 90 22 47 40 88 40 90 0 4 534 1206 589 1327 17 37 31 69 31 71 0 2 18 44 41 93 40 88 48 106 89 198 21 49 42 95 93 205 60 132 77 171 77 183 0 7 4 17 8 23 5 5 19 43 31 84 13 41 27 84 31 95 19 51 30 93 30 113 0 11 4 23 9 26 5 3 11 23 14 43 3 21 11 63 17 93 27 135 34 217 34 385 0 99 -5 205 -11 235 -25 116 -32 143 -54 198 -5 12 -13 33 -19 47 -23 58 -37 83 -74 140 -94 142 -201 239 -349 315 -126 64 -197 86 -392 120 -76 13 -12766 15 -12810 2 -119 -35 -208 -110 -262 -220 -34 -67 -38 -86 -42 -165 -2 -73 1 -100 19 -150 28 -75 67 -134 120 -179 36 -32 64 -47 155 -89 25 -12 1017 -14 6402 -16 l6373 -2 46 -23 c74 -37 100 -107 90 -249 -7 -121 -19 -188 -54 -319 -14 -52 -61 -191 -77 -225 -32 -73 -67 -150 -99 -217 -18 -40 -45 -98 -59 -128 -13 -30 -39 -86 -57 -125 -18 -38 -58 -128 -90 -200 -32 -71 -70 -157 -85 -190 -15 -33 -33 -73 -40 -90 -8 -16 -32 -70 -54 -118 -23 -49 -41 -91 -41 -93 0 -3 -18 -43 -40 -90 -22 -47 -40 -88 -40 -90 0 -2 -11 -27 -24 -56 -13 -29 -34 -75 -46 -103 -12 -27 -28 -63 -35 -80 -8 -16 -131 -295 -275 -620 -144 -324 -274 -618 -291 -653 -16 -35 -29 -65 -29 -68 0 -2 -18 -43 -40 -90 -22 -47 -40 -88 -40 -90 0 -3 -18 -43 -40 -90 -22 -47 -40 -88 -40 -90 0 -2 -14 -34 -31 -71 -17 -38 -84 -187 -149 -333 -130 -292 -156 -350 -206 -458 -19 -41 -34 -75 -34 -77 0 -2 -20 -45 -44 -97 -24 -51 -58 -127 -76 -168 -28 -63 -121 -269 -233 -510 -194 -422 -336 -690 -484 -912 -88 -133 -170 -181 -369 -217 -43 -8 -1387 -11 -4690 -11 l-4629 0 -12 27 c-6 16 -14 42 -17 58 -9 38 -22 89 -36 140 -6 22 -15 56 -20 75 -5 19 -14 53 -20 75 -6 22 -15 56 -20 75 -5 19 -14 53 -20 75 -6 22 -15 56 -20 75 -5 19 -14 53 -20 75 -6 22 -15 56 -20 75 -4 19 -15 61 -24 93 -14 51 -33 119 -56 202 -5 17 -15 55 -23 85 -9 30 -23 82 -32 115 -22 79 -30 108 -49 177 -9 32 -23 83 -31 113 -8 30 -22 80 -30 110 -8 30 -22 81 -31 113 -9 31 -19 71 -24 87 -5 17 -15 56 -24 88 -9 31 -23 83 -32 115 -9 31 -20 72 -25 90 -5 17 -13 47 -18 65 -5 17 -17 59 -26 92 -9 33 -25 92 -36 130 -11 39 -24 88 -30 110 -6 22 -15 51 -19 65 -8 25 -14 47 -50 180 -36 133 -42 155 -50 180 -4 14 -13 43 -19 65 -6 22 -24 90 -41 150 -34 123 -49 176 -61 220 -5 17 -27 95 -49 175 -42 152 -57 205 -71 255 -5 17 -23 80 -39 140 -46 169 -52 188 -60 215 -8 25 -14 47 -50 180 -36 133 -42 155 -50 180 -4 14 -13 43 -19 65 -6 22 -29 105 -51 185 -22 80 -45 163 -51 185 -6 22 -15 51 -19 65 -4 14 -13 43 -19 65 -6 22 -29 105 -51 185 -22 80 -45 163 -51 185 -6 22 -15 51 -19 65 -4 14 -13 43 -18 65 -6 22 -20 72 -31 110 -11 39 -30 104 -41 145 -39 144 -42 155 -50 180 -4 14 -13 43 -18 65 -6 22 -20 72 -31 110 -11 39 -30 104 -41 145 -39 144 -42 155 -50 180 -4 14 -13 45 -20 70 -7 25 -16 56 -20 70 -4 14 -13 43 -19 65 -6 22 -19 72 -30 110 -11 39 -27 97 -36 130 -24 85 -35 126 -45 160 -5 17 -13 46 -19 65 -5 19 -19 69 -31 110 -11 41 -30 109 -41 150 -21 77 -33 121 -50 178 -10 35 -17 61 -48 172 -12 41 -30 109 -42 150 -33 117 -36 131 -55 200 -53 203 -209 419 -387 538 -78 52 -236 132 -260 132 -9 0 -19 5 -22 10 -3 6 -19 10 -35 10 -16 0 -32 5 -35 10 -3 6 -19 10 -34 10 -15 0 -31 4 -37 9 -5 5 -29 12 -54 15 -25 4 -74 11 -110 16 -36 6 -119 14 -184 18 -76 6 -121 13 -124 20 -3 9 -295 12 -1187 12 -1042 0 -1184 -2 -1189 -15z"></path><path d="M7380 3800 c-14 -4 -42 -8 -62 -9 -43 -1 -130 -20 -243 -52 -523 -150 -949 -508 -1190 -1000 -86 -178 -134 -334 -176 -573 -16 -95 -16 -410 0 -516 69 -443 247 -799 550 -1100 184 -183 399 -323 651 -422 14 -6 33 -14 42 -19 10 -5 27 -9 37 -9 11 0 23 -4 26 -10 3 -5 19 -10 35 -10 16 0 31 -4 34 -9 3 -5 20 -11 38 -14 18 -3 56 -11 83 -17 114 -25 211 -33 400 -32 217 0 320 11 485 52 25 6 57 14 73 17 15 3 30 9 33 14 3 5 14 9 25 9 10 0 27 4 37 9 16 8 40 18 95 40 239 95 502 284 687 493 235 266 389 587 452 948 16 85 16 545 0 630 -77 437 -287 817 -607 1102 -96 85 -219 176 -315 232 -86 50 -273 136 -295 136 -7 0 -17 5 -20 10 -3 6 -17 10 -30 10 -13 0 -26 4 -29 9 -3 5 -18 11 -33 14 -16 3 -48 11 -73 17 -75 19 -132 31 -195 41 -76 13 -482 20 -515 9z m427 -791 c94 -22 128 -31 145 -40 10 -5 22 -9 28 -9 6 0 49 -18 96 -40 297 -139 532 -421 612 -735 28 -111 32 -146 32 -280 0 -134 -4 -169 -32 -280 -86 -337 -347 -634 -673 -766 -37 -15 -140 -46 -195 -59 -72 -18 -357 -19 -425 -1 -116 29 -131 33 -147 42 -10 5 -22 9 -28 9 -11 0 -132 57 -186 88 -163 93 -363 310 -437 475 -44 96 -57 133 -75 202 -6 22 -16 60 -22 85 -16 60 -16 343 0 411 15 64 47 176 59 204 88 211 251 409 433 528 48 31 89 57 92 57 3 0 33 13 68 29 82 37 128 52 243 80 57 13 355 13 412 0z"></path><path d="M15159 3805 c-4 -3 -38 -10 -75 -15 -65 -8 -99 -15 -199 -38 -40 -9 -182 -55 -220 -71 -71 -30 -247 -119 -282 -143 -23 -15 -45 -28 -49 -28 -17 0 -207 -152 -293 -235 -262 -253 -418 -523 -531 -920 -4 -16 -13 -61 -19 -100 -7 -38 -16 -95 -21 -126 -13 -72 -13 -376 0 -448 5 -31 14 -87 21 -126 13 -84 16 -94 69 -259 50 -154 153 -362 248 -496 77 -110 302 -340 412 -422 174 -129 406 -245 600 -299 208 -59 304 -71 550 -71 193 0 269 6 400 32 30 6 70 13 88 17 18 3 35 9 38 14 3 5 16 9 29 9 13 0 27 5 30 10 3 6 17 10 30 10 13 0 27 4 30 10 3 5 15 10 26 10 10 0 27 4 37 9 9 6 64 32 122 59 209 99 355 204 535 386 254 255 425 569 504 926 32 147 36 186 36 405 0 219 -4 258 -36 405 -110 495 -425 947 -839 1204 -143 89 -299 165 -403 198 -111 34 -256 69 -352 84 -57 8 -479 17 -486 9z m415 -796 c22 -6 59 -15 81 -21 121 -31 203 -69 325 -147 193 -124 357 -327 437 -541 20 -53 26 -75 55 -185 17 -68 17 -366 -1 -425 -7 -25 -17 -63 -23 -85 -83 -320 -353 -623 -663 -742 -77 -29 -98 -36 -210 -64 -66 -17 -357 -18 -413 -1 -23 7 -61 17 -84 23 -74 20 -100 30 -203 80 -239 116 -431 319 -534 564 -47 112 -49 116 -56 150 -3 17 -11 55 -18 85 -15 73 -15 341 0 410 7 30 15 69 18 85 4 17 10 39 15 50 4 11 18 47 31 80 68 179 207 355 382 486 75 56 250 149 281 149 8 0 18 5 21 10 3 6 16 10 27 10 12 0 35 4 52 9 17 6 47 14 66 19 49 14 364 14 414 1z"></path></g></svg> 